# xmcd
# 
# Track frame offsets:
#     150
#     19280
#     39745
#     63906
#     81521
#     98363
#     106804
#     123936
# 
# Disc length: 1925
# 
# Revision: 2
# Processed by: cddbd v1.5.2PL0 Copyright (c) Steve Scherf et al.
# Submitted via: fre:ac v1.0.17
# 
DISCID=5d078308
DTITLE=Michael Bublé - Crazy Love Hollywood Edition CD2
DYEAR=2010
DGENRE=Jazz
TTITLE0=HOLLYWOOD
TTITLE1=AT THIS MOMENT (LIVE)
TTITLE2=HAVEN'T MET YOU YET (LIVE)
TTITLE3=END OF MAY
TTITLE4=ME AND MRS. JONES (LIVE)
TTITLE5=TWIST and SHOUT (LIVE)
TTITLE6=HEARTACHE TONIGHT (LIVE)
TTITLE7=BEST OF ME
EXTD=YEAR: 2010
EXTT0=
EXTT1=
EXTT2=
EXTT3=
EXTT4=
EXTT5=
EXTT6=
EXTT7=
PLAYORDER=
